<?xml version="1.0" standalone="no"?><!DOCTYPE svg PUBLIC "-//W3C//DTD SVG 1.1//EN" "http://www.w3.org/Graphics/SVG/1.1/DTD/svg11.dtd"><svg t="1761621328268" class="icon" viewBox="0 0 1024 1024" version="1.1" xmlns="http://www.w3.org/2000/svg" p-id="2547" xmlns:xlink="http://www.w3.org/1999/xlink" width="200" height="200"><path d="M524.00658356 1015.24467627c-279.2087761 0-506.3198088-227.17040884-506.31980879-506.32395131 0-279.14939995 227.11379437-506.31566626 506.31980879-506.31566626 279.15630416 0 506.31428542 227.16074297 506.31428543 506.31566626 0 279.16458919-227.15798128 506.32395131-506.3129046 506.32395131z" p-id="2548"></path><path d="M424.43691349 541.43952635h116.3510286c0-27.35445671-12.89981497-43.37911446-12.89981496-43.37911446h-100.9739852c2.39852051-49.55561546 4.54987052-113.15990545 5.31623717-136.78333026h96.0499068s-0.52195783-40.64366879-11.20414242-40.64366878H348.24349771s10.16575013-53.1527058 23.71041778-76.61595306c0 0-50.41173677-2.72163726-67.61010922 64.49907484-17.19422993 67.21933126-42.9883365 107.8643809-45.72378216 115.289162-2.73544567 7.42340027 14.85094305 3.51562073 22.2743433 0 7.42616195-3.51838242 41.03582757-15.6338798 50.80527642-62.528615h52.20406816c0.70422882 29.71983703 2.77134753 120.80147856 2.11959064 136.78333026H278.55246138c-15.24034016 10.94178268-20.32045356 43.38049531-20.32045355 43.3804953h122.83545709c-5.12291945 33.92035482-14.11771658 77.64467949-26.69717647 100.82623522-19.92829476 36.73588926-30.48344201 70.34555489-102.39348955 128.18759612 0 0-11.72333858 8.59711498 24.62039187 5.4695105 36.34649214-3.12346194 70.74047536-12.50489449 94.57654966-60.1853281 12.39442722-24.78747361 25.21001091-56.2306 35.2086793-88.12111882l-0.034521 0.11322895 101.21839398 116.53882295s13.2864504-31.26223623 3.51838243-65.65621945l-75.03489031-84.02416409-25.40056695 18.7863394-0.0303785 0.09251634c7.05609661-24.7363825 12.12792494-49.19107347 13.70622601-70.46706889 0.03866354-0.51091111 0.07732707-1.03563061 0.11046725-1.56035013z m0 0" fill="#e6e6e6" p-id="2549"></path><path d="M565.01893684 312.0335362v403.31598761h42.40147916l17.37097756 48.54898248 73.49387197-48.54898248h92.62127904v-403.31598761H565.01893684zM747.26507036 671.97040934h-48.14163447l-60.04862486 39.66603349-14.19228197-39.66603349h-14.98626545V357.04204285h137.37018757v314.92836649h-0.00138082z m0 0" fill="#e6e6e6" p-id="2550"></path></svg>